<svg width="150" height="27" viewBox="0 0 150 27" fill="none" xmlns="http://www.w3.org/2000/svg">
<path d="M16.5843 16.1711H6.34796V26.639H0V0.360963H17.6151V5.25201H6.34796V11.2981H16.5843V16.1711Z" fill="white"/>
<path d="M31.7398 21.7299H23.0408L21.5216 26.639H14.7396L24.3972 0.360963H30.3653L40.0952 26.639H33.2771L31.7398 21.7299ZM24.5599 16.8389H30.2206L27.3812 7.7246L24.5599 16.8389Z" fill="white"/>
<path d="M55.6125 19.6544C55.6125 18.7279 55.2809 18.006 54.6178 17.4886C53.9667 16.9713 52.8153 16.4358 51.1635 15.8824C49.5117 15.3289 48.1613 14.7934 47.1124 14.2761C43.7003 12.6036 41.9942 10.3055 41.9942 7.38168C41.9942 5.9258 42.4162 4.64438 43.2602 3.53743C44.1162 2.41845 45.3219 1.55214 46.8773 0.938503C48.4326 0.312834 50.1809 0 52.122 0C54.0149 0 55.7089 0.336898 57.204 1.0107C58.7111 1.68449 59.8806 2.64706 60.7126 3.8984C61.5445 5.1377 61.9605 6.55749 61.9605 8.15775H55.6306C55.6306 7.0869 55.299 6.25668 54.6359 5.66711C53.9848 5.07754 53.0986 4.78275 51.9773 4.78275C50.844 4.78275 49.9457 5.03543 49.2826 5.54078C48.6315 6.03409 48.306 6.66578 48.306 7.43583C48.306 8.10963 48.6677 8.72326 49.3911 9.27674C50.1145 9.81818 51.3865 10.3837 53.2071 10.9733C55.0277 11.5508 56.5228 12.1765 57.6923 12.8503C60.5377 14.4866 61.9605 16.7426 61.9605 19.6183C61.9605 21.9164 61.0924 23.7213 59.3562 25.0328C57.62 26.3443 55.2387 27 52.2124 27C50.0784 27 48.1432 26.621 46.407 25.863C44.6829 25.0929 43.3808 24.0461 42.5006 22.7226C41.6325 21.387 41.1985 19.8529 41.1985 18.1203H47.5645C47.5645 19.5281 47.9262 20.5688 48.6496 21.2426C49.3851 21.9044 50.5727 22.2353 52.2124 22.2353C53.2614 22.2353 54.0873 22.0127 54.6901 21.5675C55.305 21.1103 55.6125 20.4726 55.6125 19.6544Z" fill="white"/>
<path d="M87.2257 26.639H80.9139V15.6658H71.5638V26.639H65.2158V0.360963H71.5638V10.7928H80.9139V0.360963H87.2257V26.639Z" fill="white"/>
<path d="M98.0227 26.639H91.6928V0.360963H98.0227V26.639Z" fill="white"/>
<path d="M124.735 14.0414C124.735 16.6043 124.258 18.8723 123.306 20.8456C122.354 22.8188 120.997 24.3409 119.237 25.4118C117.489 26.4706 115.493 27 113.251 27C111.008 27 109.019 26.4886 107.282 25.4659C105.546 24.4311 104.19 22.9572 103.213 21.0441C102.249 19.131 101.742 16.9352 101.694 14.4566V12.9766C101.694 10.4017 102.164 8.13369 103.105 6.17246C104.057 4.1992 105.414 2.67714 107.174 1.60628C108.946 0.535428 110.96 0 113.214 0C115.445 0 117.434 0.529412 119.183 1.58824C120.931 2.64706 122.287 4.15709 123.252 6.11832C124.228 8.06751 124.723 10.3055 124.735 12.8322V14.0414ZM118.278 12.9405C118.278 10.3295 117.838 8.35027 116.958 7.00267C116.09 5.64305 114.842 4.96324 113.214 4.96324C110.031 4.96324 108.349 7.34559 108.169 12.1103L108.15 14.0414C108.15 16.6163 108.578 18.5956 109.435 19.9793C110.291 21.363 111.563 22.0548 113.251 22.0548C114.854 22.0548 116.09 21.375 116.958 20.0154C117.826 18.6557 118.266 16.7005 118.278 14.1497V12.9405Z" fill="white"/>
<path d="M150 26.639H143.688L134.356 10.2874V26.639H128.008V0.360963H134.356L143.67 16.7126V0.360963H150V26.639Z" fill="white"/>
</svg>
