<svg width="100" height="18" viewBox="0 0 100 18" fill="none" xmlns="http://www.w3.org/2000/svg">
<path d="M11.0562 10.7807H4.23198V17.7594H0V0.240642H11.7434V3.50134H4.23198V7.53209H11.0562V10.7807Z" fill="#444444"/>
<path d="M21.1599 14.4866H15.3605L14.3477 17.7594H9.82638L16.2648 0.240642H20.2435L26.7302 17.7594H22.1847L21.1599 14.4866ZM16.3733 11.2259H20.1471L18.2542 5.14973L16.3733 11.2259Z" fill="#444444"/>
<path d="M37.075 13.1029C37.075 12.4853 36.854 12.004 36.4119 11.6591C35.9778 11.3142 35.2102 10.9572 34.109 10.5882C33.0078 10.2193 32.1075 9.8623 31.4082 9.51738C29.1335 8.40241 27.9961 6.87032 27.9961 4.92112C27.9961 3.95053 28.2775 3.09626 28.8401 2.35829C29.4108 1.6123 30.2146 1.03476 31.2515 0.625668C32.2884 0.208556 33.4539 0 34.748 0C36.01 0 37.1393 0.224599 38.136 0.673797C39.1407 1.12299 39.9204 1.76471 40.475 2.59893C41.0297 3.42513 41.307 4.37166 41.307 5.4385H37.0871C37.0871 4.7246 36.866 4.17112 36.4239 3.77807C35.9899 3.38503 35.3991 3.1885 34.6516 3.1885C33.896 3.1885 33.2972 3.35695 32.8551 3.69385C32.421 4.02273 32.204 4.44385 32.204 4.95722C32.204 5.40642 32.4451 5.81551 32.9274 6.18449C33.4097 6.54545 34.2577 6.92246 35.4714 7.31551C36.6852 7.70053 37.6819 8.11765 38.4615 8.56684C40.3585 9.65775 41.307 11.1618 41.307 13.0789C41.307 14.611 40.7282 15.8142 39.5708 16.6885C38.4133 17.5628 36.8258 18 34.8083 18C33.3856 18 32.0955 17.7473 30.938 17.242C29.7886 16.7286 28.9205 16.0307 28.3337 15.1484C27.755 14.258 27.4656 13.2353 27.4656 12.0802H31.7097C31.7097 13.0187 31.9508 13.7126 32.4331 14.1618C32.9234 14.6029 33.7151 14.8235 34.8083 14.8235C35.5076 14.8235 36.0582 14.6751 36.4601 14.3783C36.87 14.0735 37.075 13.6484 37.075 13.1029Z" fill="#444444"/>
<path d="M58.1505 17.7594H53.9426V10.4438H47.7092V17.7594H43.4772V0.240642H47.7092V7.19519H53.9426V0.240642H58.1505V17.7594Z" fill="#444444"/>
<path d="M65.3484 17.7594H61.1285V0.240642H65.3484V17.7594Z" fill="#444444"/>
<path d="M83.1565 9.36096C83.1565 11.0695 82.839 12.5816 82.204 13.8971C81.569 15.2126 80.6647 16.2273 79.4912 16.9412C78.3257 17.6471 76.9954 18 75.5004 18C74.0053 18 72.679 17.6591 71.5216 16.9773C70.3641 16.2874 69.4599 15.3048 68.8088 14.0294C68.1657 12.754 67.8281 11.2901 67.796 9.6377V8.65107C67.796 6.93449 68.1095 5.42246 68.7364 4.11497C69.3714 2.79947 70.2757 1.78476 71.4492 1.07086C72.6308 0.356952 73.9732 0 75.4762 0C76.9633 0 78.2895 0.352941 79.455 1.05882C80.6205 1.76471 81.5248 2.77139 82.1678 4.07888C82.8189 5.37834 83.1485 6.87032 83.1565 8.55481V9.36096ZM78.8522 8.627C78.8522 6.88636 78.5588 5.56684 77.972 4.66845C77.3933 3.76203 76.5614 3.30882 75.4762 3.30882C73.3542 3.30882 72.2329 4.89706 72.1124 8.07353L72.1003 9.36096C72.1003 11.0775 72.3857 12.3971 72.9564 13.3195C73.527 14.242 74.3751 14.7032 75.5004 14.7032C76.5694 14.7032 77.3933 14.25 77.972 13.3436C78.5508 12.4372 78.8441 11.1337 78.8522 9.43316V8.627Z" fill="#444444"/>
<path d="M100 17.7594H95.7921L89.5708 6.85829V17.7594H85.3388V0.240642H89.5708L95.7801 11.1417V0.240642H100V17.7594Z" fill="#444444"/>
</svg>
