<svg width="45" height="244" viewBox="0 0 45 244" fill="none" xmlns="http://www.w3.org/2000/svg">
<path d="M27.4414 215.789L27.4414 232.924L45 232.924L45 243.55L0.921875 243.55L0.921874 214.063L9.12598 214.063L9.12598 232.924L19.2676 232.924L19.2676 215.789L27.4414 215.789Z" fill="white"/>
<path d="M36.8262 199.018L36.8262 180.521L45 180.521L45 209.644L0.921874 209.644L0.921873 199.018L36.8262 199.018Z" fill="white"/>
<path d="M26.3213 148.703L26.3213 165.414L36.8262 165.414L36.8262 145.676L45 145.676L45 176.04L0.921872 176.04L0.921871 145.615L9.12597 145.615L9.12597 165.414L18.4199 165.414L18.4199 148.703L26.3213 148.703Z" fill="white"/>
<path d="M15.5742 124.908L0.921869 117.703L0.921869 105.563L22.7793 117.885L45 105.23L45 117.491L30.0752 124.908L45 132.325L45 144.556L22.7793 131.932L0.921871 144.223L0.92187 132.113L15.5742 124.908Z" fill="white"/>
<path d="M27.4414 58.5488L27.4414 75.6836L45 75.6836L45 86.3096L0.921868 86.3096L0.921867 56.8232L9.12597 56.8232L9.12597 75.6836L19.2676 75.6836L19.2676 58.5488L27.4414 58.5488Z" fill="white"/>
<path d="M45 41.0811L45 51.6768L0.921867 51.6768L0.921866 41.0811L45 41.0811Z" fill="white"/>
<path d="M9.12597 -3.58613e-07L9.12597 13.2295L45 13.2295L45 23.8555L9.12597 23.8555L9.12597 36.8428L0.921866 36.8428L0.921864 0L9.12597 -3.58613e-07Z" fill="white"/>
</svg>
