<svg width="371" height="42" viewBox="0 0 371 42" fill="none" xmlns="http://www.w3.org/2000/svg">
<path d="M31.8516 0.561497V27.3168C31.8516 30.3489 31.2129 32.9786 29.9355 35.2059C28.6581 37.4144 26.8253 39.0989 24.4371 40.2594C22.049 41.4198 19.2257 42 15.9674 42C11.043 42 7.16452 40.7086 4.33204 38.1257C1.49955 35.5428 0.0555389 32.0053 0 27.5134V0.561497H9.80262V27.7099C9.9137 32.1832 11.9686 34.4198 15.9674 34.4198C17.9854 34.4198 19.5127 33.8583 20.5494 32.7353C21.5861 31.6123 22.1045 29.7874 22.1045 27.2607V0.561497H31.8516Z" fill="white"/>
<path d="M52.9841 27.008H47.7079V41.4385H37.9609V0.561497H53.8728C58.6676 0.561497 62.4165 1.6377 65.1194 3.79011C67.8223 5.94251 69.1737 8.98396 69.1737 12.9144C69.1737 15.7594 68.5998 18.1176 67.452 19.9893C66.3227 21.861 64.5455 23.377 62.1203 24.5374L70.5622 41.0174V41.4385H60.1209L52.9841 27.008ZM47.7079 19.3997H53.8728C55.7241 19.3997 57.1125 18.9131 58.0382 17.9398C58.9823 16.9479 59.4544 15.5722 59.4544 13.8128C59.4544 12.0535 58.9823 10.6778 58.0382 9.68583C57.094 8.67513 55.7055 8.16979 53.8728 8.16979H47.7079V19.3997Z" fill="white"/>
<path d="M75.0609 41.4385V0.561497H89.5843C94.7864 0.561497 98.7389 1.5254 101.442 3.45321C104.163 5.38102 105.524 8.17914 105.524 11.8476C105.524 13.9626 105.043 15.7687 104.08 17.266C103.117 18.7634 101.701 19.8676 99.8312 20.5789C101.942 21.1404 103.562 22.1885 104.691 23.7233C105.82 25.258 106.385 27.1297 106.385 29.3382C106.385 33.3436 105.126 36.357 102.608 38.3783C100.109 40.381 96.3971 41.4011 91.4726 41.4385H75.0609ZM84.8079 24.0602V33.8583H91.1949C92.9537 33.8583 94.3051 33.4559 95.2493 32.6511C96.1934 31.8275 96.6655 30.6765 96.6655 29.1979C96.6655 25.7914 94.9901 24.0789 91.6392 24.0602H84.8079ZM84.8079 17.6029H89.8897C92.0187 17.5842 93.5368 17.1912 94.4439 16.4238C95.3511 15.6564 95.8046 14.5241 95.8046 13.0267C95.8046 11.3048 95.314 10.0695 94.3329 9.32086C93.3517 8.55348 91.7688 8.16979 89.5843 8.16979H84.8079V17.6029Z" fill="white"/>
<path d="M134.737 33.8021H121.38L119.048 41.4385H108.634L123.463 0.561497H132.627L147.567 41.4385H137.098L134.737 33.8021ZM123.713 26.1939H132.405L128.045 12.016L123.713 26.1939Z" fill="white"/>
<path d="M184.306 41.4385H174.614L160.285 16.0027V41.4385H150.538V0.561497H160.285L174.587 25.9973V0.561497H184.306V41.4385Z" fill="white"/>
<path d="M225.488 30.5735C225.488 29.1324 224.979 28.0094 223.961 27.2045C222.961 26.3997 221.193 25.5668 218.657 24.7059C216.12 23.8449 214.047 23.012 212.436 22.2072C207.197 19.6056 204.578 16.0307 204.578 11.4826C204.578 9.21791 205.226 7.2246 206.521 5.50267C207.836 3.76203 209.687 2.41444 212.075 1.45989C214.464 0.486631 217.148 0 220.129 0C223.035 0 225.636 0.524064 227.932 1.57219C230.246 2.62032 232.042 4.11765 233.319 6.06417C234.596 7.99198 235.235 10.2005 235.235 12.6898H225.516C225.516 11.0241 225.007 9.73262 223.988 8.81551C222.989 7.8984 221.628 7.43984 219.906 7.43984C218.166 7.43984 216.787 7.83289 215.769 8.61898C214.769 9.38636 214.269 10.369 214.269 11.5668C214.269 12.615 214.825 13.5695 215.935 14.4305C217.046 15.2727 218.999 16.1524 221.795 17.0695C224.59 17.9679 226.886 18.9412 228.682 19.9893C233.051 22.5348 235.235 26.0441 235.235 30.5174C235.235 34.0922 233.902 36.8997 231.236 38.9398C228.57 40.9799 224.914 42 220.267 42C216.991 42 214.019 41.4104 211.353 40.2313C208.706 39.0334 206.707 37.4051 205.355 35.3463C204.022 33.2687 203.356 30.8824 203.356 28.1872H213.131C213.131 30.377 213.686 31.996 214.797 33.0441C215.926 34.0735 217.75 34.5882 220.267 34.5882C221.878 34.5882 223.146 34.242 224.072 33.5495C225.016 32.8382 225.488 31.8463 225.488 30.5735Z" fill="white"/>
<path d="M271.974 8.16979H259.839V41.4385H250.092V8.16979H238.179V0.561497H271.974V8.16979Z" fill="white"/>
<path d="M291.357 18.3048L298.799 0.561497H309.324L296.3 26.7553V41.4385H286.414V26.7553L273.418 0.561497H283.887L291.357 18.3048Z" fill="white"/>
<path d="M322.015 33.8583H338.982V41.4385H312.268V0.561497H322.015V33.8583Z" fill="white"/>
<path d="M368.168 24.1163H352.839V33.8583H370.944V41.4385H343.092V0.561497H371V8.16979H352.839V16.7888H368.168V24.1163Z" fill="white"/>
</svg>
