<svg width="42" height="371" viewBox="0 0 42 371" fill="none" xmlns="http://www.w3.org/2000/svg">
<path d="M41.4385 31.8516L14.6832 31.8516C11.6511 31.8516 9.02139 31.2129 6.79412 29.9355C4.58556 28.6581 2.90107 26.8253 1.74064 24.4371C0.580211 22.049 -8.40383e-07 19.2257 -6.97959e-07 15.9674C-4.82704e-07 11.043 1.29144 7.16452 3.87433 4.33203C6.45722 1.49955 9.99465 0.0555375 14.4866 -1.20265e-06L41.4385 -2.45438e-08L41.4385 9.80262L14.2901 9.80262C9.81684 9.9137 7.58021 11.9686 7.58021 15.9674C7.58021 17.9854 8.14171 19.5127 9.2647 20.5494C10.3877 21.5861 12.2126 22.1045 14.7393 22.1045L41.4385 22.1045L41.4385 31.8516Z" fill="white"/>
<path d="M14.992 52.9841L14.992 47.7079L0.561495 47.7079L0.561495 37.9609L41.4385 37.9609L41.4385 53.8728C41.4385 58.6676 40.3623 62.4165 38.2099 65.1194C36.0575 67.8223 33.016 69.1737 29.0856 69.1737C26.2406 69.1737 23.8823 68.5998 22.0107 67.452C20.139 66.3227 18.623 64.5455 17.4626 62.1203L0.982617 70.5622L0.561494 70.5622L0.561494 60.1209L14.992 52.9841ZM22.6003 47.7079L22.6003 53.8728C22.6003 55.7241 23.0869 57.1125 24.0602 58.0382C25.0521 58.9823 26.4278 59.4544 28.1872 59.4544C29.9465 59.4544 31.3222 58.9823 32.3142 58.0382C33.3249 57.094 33.8302 55.7055 33.8302 53.8728L33.8302 47.7079L22.6003 47.7079Z" fill="white"/>
<path d="M0.561493 75.0609L41.4385 75.0609L41.4385 89.5843C41.4385 94.7864 40.4746 98.739 38.5468 101.442C36.619 104.163 33.8209 105.524 30.1524 105.524C28.0374 105.524 26.2313 105.043 24.734 104.08C23.2366 103.117 22.1323 101.701 21.4211 99.8312C20.8596 101.942 19.8115 103.562 18.2767 104.691C16.742 105.82 14.8703 106.385 12.6618 106.385C8.65641 106.385 5.64304 105.126 3.62165 102.608C1.61898 100.109 0.598926 96.3971 0.561493 91.4726L0.561493 75.0609ZM17.9398 84.8079L8.14171 84.8079L8.14171 91.1949C8.14171 92.9536 8.54411 94.3051 9.34893 95.2493C10.1725 96.1934 11.3235 96.6655 12.8021 96.6655C16.2086 96.6655 17.9211 94.9901 17.9398 91.6392L17.9398 84.8079ZM24.3971 84.8079L24.3971 89.8897C24.4158 92.0187 24.8088 93.5368 25.5762 94.4439C26.3436 95.3511 27.4759 95.8046 28.9733 95.8046C30.6952 95.8046 31.9305 95.314 32.6791 94.3329C33.4465 93.3517 33.8302 91.7688 33.8302 89.5843L33.8302 84.8079L24.3971 84.8079Z" fill="white"/>
<path d="M8.19785 134.737L8.19786 121.38L0.561492 119.048L0.561492 108.634L41.4385 123.463L41.4385 132.627L0.56149 147.567L0.561491 137.098L8.19785 134.737ZM15.8061 123.713L15.8061 132.405L29.984 128.045L15.8061 123.713Z" fill="white"/>
<path d="M0.561489 184.306L0.561489 174.614L25.9973 160.285L0.56149 160.285L0.56149 150.538L41.4385 150.538L41.4385 160.285L16.0027 174.587L41.4385 174.587L41.4385 184.306L0.561489 184.306Z" fill="white"/>
<path d="M11.4265 225.488C12.8676 225.488 13.9906 224.979 14.7954 223.961C15.6003 222.961 16.4331 221.193 17.2941 218.657C18.1551 216.12 18.988 214.047 19.7928 212.436C22.3944 207.197 25.9692 204.578 30.5174 204.578C32.7821 204.578 34.7754 205.226 36.4973 206.521C38.238 207.836 39.5856 209.687 40.5401 212.075C41.5134 214.464 42 217.148 42 220.129C42 223.035 41.4759 225.636 40.4278 227.932C39.3797 230.246 37.8823 232.042 35.9358 233.319C34.008 234.596 31.7995 235.235 29.3101 235.235L29.3101 225.516C30.9759 225.516 32.2674 225.007 33.1845 223.988C34.1016 222.989 34.5602 221.628 34.5602 219.906C34.5602 218.166 34.1671 216.787 33.381 215.769C32.6136 214.769 31.631 214.269 30.4331 214.269C29.385 214.269 28.4305 214.825 27.5695 215.935C26.7273 217.046 25.8476 218.999 24.9305 221.795C24.0321 224.59 23.0588 226.886 22.0107 228.682C19.4652 233.051 15.9559 235.235 11.4826 235.235C7.90774 235.235 5.10026 233.902 3.06015 231.236C1.02004 228.57 -9.83131e-06 224.914 -9.62819e-06 220.267C-9.48496e-06 216.991 0.589564 214.019 1.76871 211.353C2.96657 208.706 4.59491 206.707 6.65373 205.355C8.73127 204.022 11.1176 203.356 13.8128 203.356L13.8128 213.131C11.623 213.131 10.004 213.686 8.95587 214.797C7.92646 215.926 7.41175 217.75 7.41175 220.267C7.41175 221.878 7.75801 223.146 8.45053 224.072C9.16175 225.016 10.1537 225.488 11.4265 225.488Z" fill="white"/>
<path d="M33.8302 271.974L33.8302 259.839L0.561485 259.839L0.561486 250.092L33.8302 250.092L33.8302 238.179L41.4385 238.179L41.4385 271.974L33.8302 271.974Z" fill="white"/>
<path d="M23.6952 291.357L41.4385 298.799L41.4385 309.324L15.2446 296.3L0.561484 296.3L0.561484 286.414L15.2446 286.414L41.4385 273.418L41.4385 283.887L23.6952 291.357Z" fill="white"/>
<path d="M8.1417 322.015L8.1417 338.982L0.561482 338.982L0.561483 312.268L41.4385 312.268L41.4385 322.015L8.1417 322.015Z" fill="white"/>
<path d="M17.8837 368.168L17.8837 352.839L8.1417 352.839L8.1417 370.944L0.561481 370.944L0.561482 343.092L41.4385 343.092L41.4385 371L33.8302 371L33.8302 352.839L25.2112 352.839L25.2112 368.168L17.8837 368.168Z" fill="white"/>
</svg>
