<svg width="36" height="12" viewBox="0 0 36 12" fill="none" xmlns="http://www.w3.org/2000/svg">
<path d="M16.0546 11.5442H13.1737L14.9859 0.224487H17.8203L16.0546 11.5442Z" fill="#0066B2"/>
<path d="M10.8041 0.224487L8.10909 7.99481L7.78383 6.31603L6.80805 1.23175C6.80805 1.23175 6.71511 0.224487 5.46053 0.224487H0.953326L0.90686 0.416347C0.90686 0.416347 2.30084 0.704137 3.88069 1.7114L6.34339 11.5442H9.31721L13.8244 0.272452H10.8041V0.224487Z" fill="#0066B2"/>
<path d="M33.2008 11.5442H35.8029L33.5261 0.224487H31.2493C30.1805 0.224487 29.9482 1.08786 29.9482 1.08786L25.6733 11.5442H28.6472L29.2512 9.86544H32.8756L33.2008 11.5442ZM30.0411 7.51516L31.5281 3.29424L32.3644 7.51516H30.0411Z" fill="#0066B2"/>
<path d="M25.9058 2.95833L26.2776 0.51212C26.2776 0.51212 25.023 0.0324707 23.7219 0.0324707C22.328 0.0324707 18.9359 0.656015 18.9359 3.77374C18.9359 6.6996 22.8856 6.74756 22.8856 8.23448C22.8856 9.76935 19.3541 9.48156 18.1925 8.52226L17.7743 11.0644C17.7743 11.0644 19.0289 11.688 20.9804 11.688C22.932 11.688 25.8594 10.6327 25.8594 7.80279C25.8594 4.87693 21.8633 4.58914 21.8633 3.34205C21.9098 2.09496 24.6977 2.23886 25.9058 2.95833Z" fill="#0066B2"/>
<path d="M7.73639 6.31652L6.80707 1.23224C6.80707 1.23224 6.71414 0.224976 5.45955 0.224976H0.95235L0.905884 0.416835C0.905884 0.416835 3.04332 0.896485 5.13429 2.62322C7.13233 4.25403 7.73639 6.31652 7.73639 6.31652Z" fill="#F9A533"/>
</svg>
